<svg xmlns="http://www.w3.org/2000/svg" viewBox="0 0 420 500" role="img" aria-label="Tijdelijke sfeerafbeelding">
  <defs><linearGradient id="b" x1=".2" y1="0" x2=".8" y2="1">
    <stop offset="0" stop-color="#E7EEE3"/><stop offset=".6" stop-color="#EFE2D2"/><stop offset="1" stop-color="#E7CBC6"/>
  </linearGradient></defs>
  <rect width="420" height="500" fill="url(#b)"/>
  <circle cx="212" cy="150" r="96" fill="#FBF8F3" opacity=".62"/>
  <path d="M0 372c96-40 168-24 244 14 34 17 96 20 176 8v106H0Z" fill="#CEDCC9" opacity=".8"/>
  <g stroke="#4F6B55" stroke-width="1.5" fill="none" opacity=".48" stroke-linecap="round">
    <path d="M212 470V210"/><path d="M212 320c-44-4-66-30-62-70 42 4 66 30 62 70Z"/>
    <path d="M212 268c4-42 32-64 74-60-4 42-32 64-74 60Z"/><path d="M212 392c-32-2-48-20-46-48 30 2 48 20 46 48Z"/>
  </g>
</svg>
